<?xml version="1.0" encoding="UTF-8" standalone="no"?><svg xmlns="http://www.w3.org/2000/svg" xmlns:xlink="http://www.w3.org/1999/xlink" contentStyleType="text/css" height="279px" preserveAspectRatio="none" style="width:464px;height:279px;background:#FFFFFF;" version="1.1" viewBox="0 0 464 279" width="464px" zoomAndPan="magnify"><defs/><g><!--cluster myappipk--><g id="cluster_myappipk"><path d="M121.6251,159 L210.6251,159 A3.75,3.75 0 0 1 213.1251,161.5 L220.1251,181.2969 L269.6251,181.2969 A2.5,2.5 0 0 1 272.1251,183.7969 L272.1251,269.5 A2.5,2.5 0 0 1 269.6251,272 L121.6251,272 A2.5,2.5 0 0 1 119.1251,269.5 L119.1251,161.5 A2.5,2.5 0 0 1 121.6251,159 " fill="none" style="stroke:#000000;stroke-width:1.5;"/><line style="stroke:#000000;stroke-width:1.5;" x1="119.1251" x2="220.1251" y1="181.2969" y2="181.2969"/><text fill="#000000" font-family="sans-serif" font-size="14" font-weight="bold" lengthAdjust="spacing" textLength="88" x="123.1251" y="173.9951">myapp.rpm</text></g><!--cluster mylibraryipk--><g id="cluster_mylibraryipk"><path d="M121.6251,6 L231.6251,6 A3.75,3.75 0 0 1 234.1251,8.5 L241.1251,28.2969 L305.6251,28.2969 A2.5,2.5 0 0 1 308.1251,30.7969 L308.1251,116.5 A2.5,2.5 0 0 1 305.6251,119 L121.6251,119 A2.5,2.5 0 0 1 119.1251,116.5 L119.1251,8.5 A2.5,2.5 0 0 1 121.6251,6 " fill="none" style="stroke:#000000;stroke-width:1.5;"/><line style="stroke:#000000;stroke-width:1.5;" x1="119.1251" x2="241.1251" y1="28.2969" y2="28.2969"/><text fill="#000000" font-family="sans-serif" font-size="14" font-weight="bold" lengthAdjust="spacing" textLength="109" x="123.1251" y="20.9951">mylibrary.rpm</text></g><!--entity myapp--><g id="elem_myapp"><polygon fill="#F1F1F1" points="162.1251,212,172.1251,202,248.1251,202,248.1251,238.2969,238.1251,248.2969,162.1251,248.2969,162.1251,212" style="stroke:#181818;stroke-width:0.5;"/><line style="stroke:#181818;stroke-width:0.5;" x1="238.1251" x2="248.1251" y1="212" y2="202"/><line style="stroke:#181818;stroke-width:0.5;" x1="162.1251" x2="238.1251" y1="212" y2="212"/><line style="stroke:#181818;stroke-width:0.5;" x1="238.1251" x2="238.1251" y1="212" y2="248.2969"/><text fill="#000000" font-family="sans-serif" font-size="14" lengthAdjust="spacing" textLength="46" x="177.1251" y="234.9951">myapp</text></g><!--entity mylibrary--><g id="elem_mylibrary"><polygon fill="#F1F1F1" points="162.6251,59,172.6251,49,283.6251,49,283.6251,85.2969,273.6251,95.2969,162.6251,95.2969,162.6251,59" style="stroke:#181818;stroke-width:0.5;"/><line style="stroke:#181818;stroke-width:0.5;" x1="273.6251" x2="283.6251" y1="59" y2="49"/><line style="stroke:#181818;stroke-width:0.5;" x1="162.6251" x2="273.6251" y1="59" y2="59"/><line style="stroke:#181818;stroke-width:0.5;" x1="273.6251" x2="273.6251" y1="59" y2="95.2969"/><text fill="#000000" font-family="sans-serif" font-size="14" lengthAdjust="spacing" textLength="81" x="177.6251" y="81.9951">mylibrary.so</text></g><g id="elem_mylibrarysrc"><rect fill="#F1F1F1" height="77.1875" style="stroke:#181818;stroke-width:0.5;" width="126" x="332.1251" y="33.5"/><text fill="#000000" font-family="sans-serif" font-size="14" lengthAdjust="spacing" textLength="112" x="339.1251" y="48.4951">mylibrary source</text><line style="stroke:#181818;stroke-width:0.5;" x1="333.1251" x2="457.1251" y1="53.7969" y2="53.7969"/><text fill="#000000" font-family="sans-serif" font-size="14" lengthAdjust="spacing" textLength="99" x="338.1251" y="70.792">CMakeLists.txt</text><text fill="#000000" font-family="sans-serif" font-size="14" lengthAdjust="spacing" textLength="90" x="338.1251" y="87.0889">mylibrary.cpp</text><text fill="#000000" font-family="sans-serif" font-size="14" lengthAdjust="spacing" textLength="73" x="338.1251" y="103.3857">mylibrary.h</text></g><g id="elem_myappsrc"><rect fill="#F1F1F1" height="77.1875" style="stroke:#181818;stroke-width:0.5;" width="112" x="296.1251" y="186.5"/><text fill="#000000" font-family="sans-serif" font-size="14" lengthAdjust="spacing" textLength="98" x="303.1251" y="201.4951">myapp source</text><line style="stroke:#181818;stroke-width:0.5;" x1="297.1251" x2="407.1251" y1="206.7969" y2="206.7969"/><text fill="#000000" font-family="sans-serif" font-size="14" lengthAdjust="spacing" textLength="62" x="302.1251" y="223.792">header.h</text><text fill="#000000" font-family="sans-serif" font-size="14" lengthAdjust="spacing" textLength="45" x="302.1251" y="240.0889">main.c</text><text fill="#000000" font-family="sans-serif" font-size="14" lengthAdjust="spacing" textLength="56" x="302.1251" y="256.3857">Makefile</text></g><!--entity ra--><g id="elem_ra"><path d="M22.2319,58.2073 C26.2451,49.9925 31.8446,49.0349 37.2842,56.8695 C40.5491,48.5816 47.213,47.9229 52.3421,55.0483 C58.1102,46.6209 63.9247,48.7065 68.7632,56.0181 C74.8457,47.5793 80.391,48.2899 85.0174,57.3692 C93.4882,60.9141 93.6135,68.1838 87.3869,73.8428 C94.5262,79.4628 93.3843,86.5594 84.5557,89.2442 C81.1405,97.8416 75.3364,98.2937 69.6972,91.3739 C67.2844,98.8672 60.0853,100.9841 54.2783,95.3653 C48.2269,104.1744 40.5745,101.977 36.9808,92.9781 C29.981,98.0783 23.3226,96.3431 21.0598,87.5499 C13.0674,83.0617 12.7168,78.6176 19.7953,72.8345 C14.2765,66.975 15.4625,62.0198 22.2319,58.2073 " fill="#F1F1F1" style="stroke:#181818;stroke-width:0.5;"/><text fill="#000000" font-family="sans-serif" font-size="14" lengthAdjust="spacing" textLength="50" x="27.1251" y="76.9951">Repo A</text></g><!--entity rb--><g id="elem_rb"><path d="M18.9049,210.262 C22.2303,200.8765 30.3967,200.6993 35.5552,208.4844 C40.6165,200.9444 46.5068,198.765 52.8224,207.1218 C58.1658,200.7384 64.3599,202.3584 67.9143,209.1682 C73.9688,202.8728 80.1444,202.9753 84.7863,210.8502 C93.4251,214.4803 93.2265,219.714 87.1746,225.7059 C92.7928,231.1843 92.2189,239.0252 83.629,241.2661 C79.2434,249.9356 73.5231,250.5543 67.9167,242.4068 C64.524,250.6631 58.9018,253.5365 51.8779,246.1238 C45.3459,252.1026 39.4362,251.3082 36.4304,242.4521 C30.4644,251.4006 24.1456,249.0738 19.3985,241.2168 C11.1151,240.2205 7.7665,235.1186 11.2446,227.254 C6,219.0218 9.3699,211.8312 18.9049,210.262 " fill="#F1F1F1" style="stroke:#181818;stroke-width:0.5;"/><text fill="#000000" font-family="sans-serif" font-size="14" lengthAdjust="spacing" textLength="51" x="25.6251" y="229.9951">Repo B</text></g><!--reverse link mylibrary to mylibrarysrc--><g id="link_mylibrary_mylibrarysrc"><path codeLine="27" d="M289.1551,72 C303.3451,72 317.5251,72 331.7051,72 " fill="none" id="mylibrary-backto-mylibrarysrc" style="stroke:#181818;stroke-width:1.0;"/><polygon fill="#181818" points="283.9251,72,292.9251,76,288.9251,72,292.9251,68,283.9251,72" style="stroke:#181818;stroke-width:1.0;"/></g><!--reverse link myapp to myappsrc--><g id="link_myapp_myappsrc"><path codeLine="28" d="M253.4351,225 C267.6551,225 281.8751,225 296.0951,225 " fill="none" id="myapp-backto-myappsrc" style="stroke:#181818;stroke-width:1.0;"/><polygon fill="#181818" points="248.1951,225,257.1951,229,253.1951,225,257.1951,221,248.1951,225" style="stroke:#181818;stroke-width:1.0;"/></g><!--link mylibraryipk to myappipk--><g id="link_mylibraryipk_myappipk"><path d="M127.1251,119.2205 C127.1251,119.4862 127.1251,119.7525 127.1251,120.0194 C127.1251,120.5532 127.1251,121.0891 127.1251,121.6272 C127.1251,130.2363 127.1251,139.3816 127.1251,148.5263 C127.1251,150.8124 127.1251,153.0986 127.1251,155.3763 C127.1251,156.5151 127.1251,157.6519 127.1251,158.7855 " fill="none" id="mylibraryipk-to-myappipk" style="stroke:#181818;stroke-width:1.0;"/><polygon fill="#181818" points="127.1251,158.7855,131.1251,149.7855,127.1251,153.7855,123.1251,149.7855,127.1251,158.7855" style="stroke:#181818;stroke-width:1.0;"/></g><!--reverse link ra to mylibraryipk--><g id="link_ra_mylibraryipk"><path codeLine="32" d="M97.3551,72 C102.2251,72 107.0951,72 111.9664,72 C113.1842,72 114.4021,72 115.6201,72 C116.2291,72 116.8381,72 117.4471,72 C117.7517,72 118.0562,72 118.3607,72 C118.513,72 118.6653,72 118.8175,72 C118.8937,72 118.9698,72 119.0459,72 " fill="none" id="ra-backto-mylibraryipk" style="stroke:#181818;stroke-width:1.0;"/><polygon fill="#181818" points="92.2651,72,101.2651,76,97.2651,72,101.2651,68,92.2651,72" style="stroke:#181818;stroke-width:1.0;"/></g><!--reverse link rb to myappipk--><g id="link_rb_myappipk"><path codeLine="33" d="M96.9551,225 C101.8951,225 106.8326,225 111.7689,225 C113.003,225 114.2369,225 115.4709,225 C116.0878,225 116.7048,225 117.3217,225 C117.6302,225 117.9386,225 118.2471,225 C118.4013,225 118.5556,225 118.7098,225 C118.7869,225 118.864,225 118.9411,225 C118.9797,225 119.0183,225 119.0568,225 " fill="none" id="rb-backto-myappipk" style="stroke:#181818;stroke-width:1.0;"/><polygon fill="#181818" points="91.7951,225,100.7951,229,96.7951,225,100.7951,221,91.7951,225" style="stroke:#181818;stroke-width:1.0;"/></g><!--SRC=[NP1D4i8W34Rtd2BJVNi4PzIjRhn1eB75qi807TjnlBlGVzp1IxwN02gbtwqSP5SnflcBX8Ui7PNa5kq8JlTMK0ReO8FE2lWmWEiT6xf9vrtX1n_0rb48Ov9xpRv7EngJcWDOhJLXIJOaGXvbLuXmY8EUKb6q61GDLhHe2clQtI5DCpawNT9C_XBhFdjg8KdoqEXqsXTzGkc-XEn1HiDvAbjCu6M6d36MV5gkyjD1jJrxuN5TbcoKhpnS_ain4-Pkxvu1_m40]--></g></svg>