<?xml version="1.0" encoding="UTF-8" standalone="no"?><svg xmlns="http://www.w3.org/2000/svg" xmlns:xlink="http://www.w3.org/1999/xlink" contentStyleType="text/css" height="175px" preserveAspectRatio="none" style="width:237px;height:175px;background:#FFFFFF;" version="1.1" viewBox="0 0 237 175" width="237px" zoomAndPan="magnify"><defs/><g><g id="elem_Makefile"><rect fill="#F1F1F1" height="44.5938" style="stroke:#181818;stroke-width:0.5;" width="154" x="38" y="7"/><text fill="#000000" font-family="sans-serif" font-size="14" lengthAdjust="spacing" textLength="56" x="87" y="21.9951">Makefile</text><line style="stroke:#181818;stroke-width:0.5;" x1="39" x2="191" y1="27.2969" y2="27.2969"/><text fill="#000000" font-family="sans-serif" font-size="14" lengthAdjust="spacing" textLength="142" x="44" y="44.292">gcc -o myapp main.c</text></g><g id="elem_main.c"><rect fill="#F1F1F1" height="44.5938" style="stroke:#181818;stroke-width:0.5;" width="92" x="7" y="112.5"/><text fill="#000000" font-family="sans-serif" font-size="14" lengthAdjust="spacing" textLength="45" x="30.5" y="127.4951">main.c</text><line style="stroke:#181818;stroke-width:0.5;" x1="8" x2="98" y1="132.7969" y2="132.7969"/><text fill="#000000" font-family="sans-serif" font-size="14" lengthAdjust="spacing" textLength="80" x="13" y="149.792">Hello world!</text></g><!--entity myapp--><g id="elem_myapp"><polygon fill="#F1F1F1" points="134,122,144,112,220,112,220,148.2969,210,158.2969,134,158.2969,134,122" style="stroke:#181818;stroke-width:0.5;"/><line style="stroke:#181818;stroke-width:0.5;" x1="210" x2="220" y1="122" y2="112"/><line style="stroke:#181818;stroke-width:0.5;" x1="134" x2="210" y1="122" y2="122"/><line style="stroke:#181818;stroke-width:0.5;" x1="210" x2="210" y1="122" y2="158.2969"/><text fill="#000000" font-family="sans-serif" font-size="14" lengthAdjust="spacing" textLength="46" x="149" y="144.9951">myapp</text></g><!--reverse link Makefile to main.c--><g id="link_Makefile_main.c"><path codeLine="12" d="M99.19,56.9 C88.9,74.07 75.65,96.19 65.98,112.33 " fill="none" id="Makefile-backto-main.c" style="stroke:#181818;stroke-width:1.0;"/><polygon fill="#181818" points="102,52.2,93.9396,57.8595,99.4275,56.4875,100.7995,61.9754,102,52.2" style="stroke:#181818;stroke-width:1.0;"/></g><!--link Makefile to myapp--><g id="link_Makefile_myapp"><path codeLine="13" d="M128,52.2 C137.6,68.23 150.74,90.17 161,107.28 " fill="none" id="Makefile-to-myapp" style="stroke:#181818;stroke-width:1.0;"/><polygon fill="#181818" points="163.81,111.98,162.6095,102.2046,161.2375,107.6925,155.7496,106.3205,163.81,111.98" style="stroke:#181818;stroke-width:1.0;"/></g><!--SRC=[Iyp9oI_FpQp8p4ldoa_AIaqkKV1Dp4vDoyn9LQZcKb18JqvMqCrNoArCB2XGo4tCpDDBvghbWYc5280LUgG2JL8epo_AIL44gSZBJqc5QEFYWfjeewiBCmGkfgjh1r470000]--></g></svg>